<svg id="SvgjsSvg1001" width="598" height="360" xmlns="http://www.w3.org/2000/svg" version="1.1" xmlns:xlink="http://www.w3.org/1999/xlink" xmlns:svgjs="http://svgjs.com/svgjs"><defs id="SvgjsDefs1002"><marker id="SvgjsMarker1022" markerWidth="14" markerHeight="10" refX="10" refY="5" viewBox="0 0 14 10" orient="auto" markerUnits="userSpaceOnUse" stroke-dasharray="0,0"><path id="SvgjsPath1023" d="M0,0 L14,5 L0,10 L0,0" fill="#323232" stroke="#323232" stroke-width="1"></path></marker><marker id="SvgjsMarker1026" markerWidth="14" markerHeight="10" refX="10" refY="5" viewBox="0 0 14 10" orient="auto" markerUnits="userSpaceOnUse" stroke-dasharray="0,0"><path id="SvgjsPath1027" d="M0,0 L14,5 L0,10 L0,0" fill="#323232" stroke="#323232" stroke-width="1"></path></marker><marker id="SvgjsMarker1042" markerWidth="14" markerHeight="10" refX="10" refY="5" viewBox="0 0 14 10" orient="auto" markerUnits="userSpaceOnUse" stroke-dasharray="0,0"><path id="SvgjsPath1043" d="M0,0 L14,5 L0,10 L0,0" fill="#323232" stroke="#323232" stroke-width="1"></path></marker><marker id="SvgjsMarker1046" markerWidth="14" markerHeight="10" refX="10" refY="5" viewBox="0 0 14 10" orient="auto" markerUnits="userSpaceOnUse" stroke-dasharray="0,0"><path id="SvgjsPath1047" d="M0,0 L14,5 L0,10 L0,0" fill="#323232" stroke="#323232" stroke-width="1"></path></marker><marker id="SvgjsMarker1062" markerWidth="14" markerHeight="10" refX="10" refY="5" viewBox="0 0 14 10" orient="auto" markerUnits="userSpaceOnUse" stroke-dasharray="0,0"><path id="SvgjsPath1063" d="M0,0 L14,5 L0,10 L0,0" fill="#323232" stroke="#323232" stroke-width="1"></path></marker><marker id="SvgjsMarker1066" markerWidth="14" markerHeight="10" refX="10" refY="5" viewBox="0 0 14 10" orient="auto" markerUnits="userSpaceOnUse" stroke-dasharray="0,0"><path id="SvgjsPath1067" d="M0,0 L14,5 L0,10 L0,0" fill="#e74f4c" stroke="#e74f4c" stroke-width="1"></path></marker><marker id="SvgjsMarker1082" markerWidth="14" markerHeight="10" refX="10" refY="5" viewBox="0 0 14 10" orient="auto" markerUnits="userSpaceOnUse" stroke-dasharray="0,0"><path id="SvgjsPath1083" d="M0,0 L14,5 L0,10 L0,0" fill="#323232" stroke="#323232" stroke-width="1"></path></marker><marker id="SvgjsMarker1086" markerWidth="14" markerHeight="10" refX="10" refY="5" viewBox="0 0 14 10" orient="auto" markerUnits="userSpaceOnUse" stroke-dasharray="0,0"><path id="SvgjsPath1087" d="M0,0 L14,5 L0,10 L0,0" fill="#323232" stroke="#323232" stroke-width="1"></path></marker><marker id="SvgjsMarker1090" markerWidth="14" markerHeight="10" refX="10" refY="5" viewBox="0 0 14 10" orient="auto" markerUnits="userSpaceOnUse" stroke-dasharray="0,0"><path id="SvgjsPath1091" d="M0,0 L14,5 L0,10 L0,0" fill="#323232" stroke="#323232" stroke-width="1"></path></marker><marker id="SvgjsMarker1106" markerWidth="14" markerHeight="10" refX="10" refY="5" viewBox="0 0 14 10" orient="auto" markerUnits="userSpaceOnUse" stroke-dasharray="0,0"><path id="SvgjsPath1107" d="M0,0 L14,5 L0,10 L0,0" fill="#e74f4c" stroke="#e74f4c" stroke-width="1"></path></marker><marker id="SvgjsMarker1110" markerWidth="14" markerHeight="10" refX="10" refY="5" viewBox="0 0 14 10" orient="auto" markerUnits="userSpaceOnUse" stroke-dasharray="0,0"><path id="SvgjsPath1111" d="M0,0 L14,5 L0,10 L0,0" fill="#e74f4c" stroke="#e74f4c" stroke-width="1"></path></marker><marker id="SvgjsMarker1122" markerWidth="14" markerHeight="10" refX="10" refY="5" viewBox="0 0 14 10" orient="auto" markerUnits="userSpaceOnUse" stroke-dasharray="0,0"><path id="SvgjsPath1123" d="M0,0 L14,5 L0,10 L0,0" fill="#323232" stroke="#323232" stroke-width="1"></path></marker><marker id="SvgjsMarker1126" markerWidth="14" markerHeight="10" refX="10" refY="5" viewBox="0 0 14 10" orient="auto" markerUnits="userSpaceOnUse" stroke-dasharray="0,0"><path id="SvgjsPath1127" d="M0,0 L14,5 L0,10 L0,0" fill="#323232" stroke="#323232" stroke-width="1"></path></marker><marker id="SvgjsMarker1142" markerWidth="14" markerHeight="10" refX="10" refY="5" viewBox="0 0 14 10" orient="auto" markerUnits="userSpaceOnUse" stroke-dasharray="0,0"><path id="SvgjsPath1143" d="M0,0 L14,5 L0,10 L0,0" fill="#323232" stroke="#323232" stroke-width="1"></path></marker><marker id="SvgjsMarker1146" markerWidth="14" markerHeight="10" refX="10" refY="5" viewBox="0 0 14 10" orient="auto" markerUnits="userSpaceOnUse" stroke-dasharray="0,0"><path id="SvgjsPath1147" d="M0,0 L14,5 L0,10 L0,0" fill="#323232" stroke="#323232" stroke-width="1"></path></marker><marker id="SvgjsMarker1162" markerWidth="14" markerHeight="10" refX="10" refY="5" viewBox="0 0 14 10" orient="auto" markerUnits="userSpaceOnUse" stroke-dasharray="0,0"><path id="SvgjsPath1163" d="M0,0 L14,5 L0,10 L0,0" fill="#323232" stroke="#323232" stroke-width="1"></path></marker><marker id="SvgjsMarker1166" markerWidth="14" markerHeight="10" refX="10" refY="5" viewBox="0 0 14 10" orient="auto" markerUnits="userSpaceOnUse" stroke-dasharray="0,0"><path id="SvgjsPath1167" d="M0,0 L14,5 L0,10 L0,0" fill="#323232" stroke="#323232" stroke-width="1"></path></marker><marker id="SvgjsMarker1170" markerWidth="14" markerHeight="10" refX="10" refY="5" viewBox="0 0 14 10" orient="auto" markerUnits="userSpaceOnUse" stroke-dasharray="0,0"><path id="SvgjsPath1171" d="M0,0 L14,5 L0,10 L0,0" fill="#323232" stroke="#323232" stroke-width="1"></path></marker><marker id="SvgjsMarker1174" markerWidth="14" markerHeight="10" refX="10" refY="5" viewBox="0 0 14 10" orient="auto" markerUnits="userSpaceOnUse" stroke-dasharray="0,0"><path id="SvgjsPath1175" d="M0,0 L14,5 L0,10 L0,0" fill="#323232" stroke="#323232" stroke-width="1"></path></marker><marker id="SvgjsMarker1178" markerWidth="14" markerHeight="10" refX="10" refY="5" viewBox="0 0 14 10" orient="auto" markerUnits="userSpaceOnUse" stroke-dasharray="0,0"><path id="SvgjsPath1179" d="M0,0 L14,5 L0,10 L0,0" fill="#323232" stroke="#323232" stroke-width="1"></path></marker><marker id="SvgjsMarker1182" markerWidth="14" markerHeight="10" refX="10" refY="5" viewBox="0 0 14 10" orient="auto" markerUnits="userSpaceOnUse" stroke-dasharray="0,0"><path id="SvgjsPath1183" d="M0,0 L14,5 L0,10 L0,0" fill="#e74f4c" stroke="#e74f4c" stroke-width="1"></path></marker><marker id="SvgjsMarker1186" markerWidth="14" markerHeight="10" refX="10" refY="5" viewBox="0 0 14 10" orient="auto" markerUnits="userSpaceOnUse" stroke-dasharray="0,0"><path id="SvgjsPath1187" d="M0,0 L14,5 L0,10 L0,0" fill="#323232" stroke="#323232" stroke-width="1"></path></marker></defs><g id="SvgjsG1008" transform="translate(139.5,90.5)"><path id="SvgjsPath1009" d="M 0 12.5C 0 -4.166666666666667 25 -4.166666666666667 25 12.5C 25 29.166666666666668 0 29.166666666666668 0 12.5Z" stroke="rgba(33,41,48,1)" stroke-width="2" fill-opacity="1" fill="#4ccbcd"></path><g id="SvgjsG1010"><text id="SvgjsText1011" font-family="微软雅黑" text-anchor="middle" font-size="13px" width="5px" fill="#323232" font-weight="400" align="middle" lineHeight="125%" anchor="middle" family="微软雅黑" size="13px" weight="400" font-style="" opacity="1" y="1.875" transform="rotate(0)"></text></g></g><g id="SvgjsG1012" transform="translate(96,50.5)"><path id="SvgjsPath1013" d="M 0 12.5C 0 -4.166666666666667 25 -4.166666666666667 25 12.5C 25 29.166666666666668 0 29.166666666666668 0 12.5Z" stroke="rgba(33,41,48,1)" stroke-width="2" fill-opacity="1" fill="#4ccbcd"></path><g id="SvgjsG1014"><text id="SvgjsText1015" font-family="微软雅黑" text-anchor="middle" font-size="13px" width="5px" fill="#323232" font-weight="400" align="middle" lineHeight="125%" anchor="middle" family="微软雅黑" size="13px" weight="400" font-style="" opacity="1" y="1.875" transform="rotate(0)"></text></g></g><g id="SvgjsG1016" transform="translate(25,77.5)"><path id="SvgjsPath1017" d="M 0 12.5C 0 -4.166666666666667 25 -4.166666666666667 25 12.5C 25 29.166666666666668 0 29.166666666666668 0 12.5Z" stroke="rgba(33,41,48,1)" stroke-width="2" fill-opacity="1" fill="#4ccbcd"></path><g id="SvgjsG1018"><text id="SvgjsText1019" font-family="微软雅黑" text-anchor="middle" font-size="13px" width="5px" fill="#323232" font-weight="400" align="middle" lineHeight="125%" anchor="middle" family="微软雅黑" size="13px" weight="400" font-style="" opacity="1" y="1.875" transform="rotate(0)"></text></g></g><g id="SvgjsG1020"><path id="SvgjsPath1021" d="M95.05264687873165 63.320190667607704L49.892930270278896 78.58347474321764" stroke="#323232" stroke-width="2" fill="none" marker-end="url(#SvgjsMarker1022)"></path></g><g id="SvgjsG1024"><path id="SvgjsPath1025" d="M121.7480746383751 63.663614598558524L149.30693130184972 88.1109874451893" stroke="#323232" stroke-width="2" fill="none" marker-end="url(#SvgjsMarker1026)"></path></g><g id="SvgjsG1028" transform="translate(295,64)"><path id="SvgjsPath1029" d="M 0 12.5C 0 -4.166666666666667 25 -4.166666666666667 25 12.5C 25 29.166666666666668 0 29.166666666666668 0 12.5Z" stroke="rgba(33,41,48,1)" stroke-width="2" fill-opacity="1" fill="#4ccbcd"></path><g id="SvgjsG1030"><text id="SvgjsText1031" font-family="微软雅黑" text-anchor="middle" font-size="13px" width="5px" fill="#323232" font-weight="400" align="middle" lineHeight="125%" anchor="middle" family="微软雅黑" size="13px" weight="400" font-style="" opacity="1" y="1.875" transform="rotate(0)"></text></g></g><g id="SvgjsG1032" transform="translate(253.5,25)"><path id="SvgjsPath1033" d="M 0 12.5C 0 -4.166666666666667 25 -4.166666666666667 25 12.5C 25 29.166666666666668 0 29.166666666666668 0 12.5Z" stroke="rgba(33,41,48,1)" stroke-width="2" fill-opacity="1" fill="#4ccbcd"></path><g id="SvgjsG1034"><text id="SvgjsText1035" font-family="微软雅黑" text-anchor="middle" font-size="13px" width="5px" fill="#323232" font-weight="400" align="middle" lineHeight="125%" anchor="middle" family="微软雅黑" size="13px" weight="400" font-style="" opacity="1" y="1.875" transform="rotate(0)"></text></g></g><g id="SvgjsG1036" transform="translate(181,50.5)"><path id="SvgjsPath1037" d="M 0 12.5C 0 -4.166666666666667 25 -4.166666666666667 25 12.5C 25 29.166666666666668 0 29.166666666666668 0 12.5Z" stroke="rgba(33,41,48,1)" stroke-width="2" fill-opacity="1" fill="#4ccbcd"></path><g id="SvgjsG1038"><text id="SvgjsText1039" font-family="微软雅黑" text-anchor="middle" font-size="13px" width="5px" fill="#323232" font-weight="400" align="middle" lineHeight="125%" anchor="middle" family="微软雅黑" size="13px" weight="400" font-style="" opacity="1" y="1.875" transform="rotate(0)"></text></g></g><g id="SvgjsG1040"><path id="SvgjsPath1041" d="M252.55260758666213 37.82007439002504L205.89307172172897 53.58389334251518" stroke="#323232" stroke-width="2" fill="none" marker-end="url(#SvgjsMarker1042)"></path></g><g id="SvgjsG1044"><path id="SvgjsPath1045" d="M279.23820988289265 38.17457109988467L304.8424444215865 61.571544040415205" stroke="#323232" stroke-width="2" fill="none" marker-end="url(#SvgjsMarker1046)"></path></g><g id="SvgjsG1048" transform="translate(164,195.5)"><path id="SvgjsPath1049" d="M 0 12.5C 0 -4.166666666666667 25 -4.166666666666667 25 12.5C 25 29.166666666666668 0 29.166666666666668 0 12.5Z" stroke="rgba(33,41,48,1)" stroke-width="2" fill-opacity="1" fill="#e74f4c"></path><g id="SvgjsG1050"><text id="SvgjsText1051" font-family="微软雅黑" text-anchor="middle" font-size="13px" width="5px" fill="#323232" font-weight="400" align="middle" lineHeight="125%" anchor="middle" family="微软雅黑" size="13px" weight="400" font-style="" opacity="1" y="1.875" transform="rotate(0)"></text></g></g><g id="SvgjsG1052" transform="translate(80,165.5)"><path id="SvgjsPath1053" d="M 0 12.5C 0 -4.166666666666667 25 -4.166666666666667 25 12.5C 25 29.166666666666668 0 29.166666666666668 0 12.5Z" stroke="rgba(33,41,48,1)" stroke-width="2" fill-opacity="1" fill="#4ccbcd"></path><g id="SvgjsG1054"><text id="SvgjsText1055" font-family="微软雅黑" text-anchor="middle" font-size="13px" width="5px" fill="#323232" font-weight="400" align="middle" lineHeight="125%" anchor="middle" family="微软雅黑" size="13px" weight="400" font-style="" opacity="1" y="1.875" transform="rotate(0)"></text></g></g><g id="SvgjsG1056" transform="translate(80,249.5)"><path id="SvgjsPath1057" d="M 0 12.5C 0 -4.166666666666667 25 -4.166666666666667 25 12.5C 25 29.166666666666668 0 29.166666666666668 0 12.5Z" stroke="rgba(33,41,48,1)" stroke-width="2" fill-opacity="1" fill="#4ccbcd"></path><g id="SvgjsG1058"><text id="SvgjsText1059" font-family="微软雅黑" text-anchor="middle" font-size="13px" width="5px" fill="#323232" font-weight="400" align="middle" lineHeight="125%" anchor="middle" family="微软雅黑" size="13px" weight="400" font-style="" opacity="1" y="1.875" transform="rotate(0)"></text></g></g><g id="SvgjsG1060"><path id="SvgjsPath1061" d="M92.63640444084598 191.49065323323424L100.99140304666719 252.169809506962" stroke="#323232" stroke-width="2" fill="none" marker-end="url(#SvgjsMarker1062)"></path></g><g id="SvgjsG1064"><path id="SvgjsPath1065" d="M218.20508531237795 155.54447641210447L194.56169287543952 78.93988491642395" stroke="#e74f4c" stroke-width="2" fill="none" marker-end="url(#SvgjsMarker1066)"></path></g><g id="SvgjsG1068" transform="translate(253.5,172)"><path id="SvgjsPath1069" d="M 0 12.5C 0 -4.166666666666667 25 -4.166666666666667 25 12.5C 25 29.166666666666668 0 29.166666666666668 0 12.5Z" stroke="rgba(33,41,48,1)" stroke-width="2" fill-opacity="1" fill="#4ccbcd"></path><g id="SvgjsG1070"><text id="SvgjsText1071" font-family="微软雅黑" text-anchor="middle" font-size="13px" width="5px" fill="#323232" font-weight="400" align="middle" lineHeight="125%" anchor="middle" family="微软雅黑" size="13px" weight="400" font-style="" opacity="1" y="1.875" transform="rotate(0)"></text></g></g><g id="SvgjsG1072" transform="translate(236,247)"><path id="SvgjsPath1073" d="M 0 12.5C 0 -4.166666666666667 25 -4.166666666666667 25 12.5C 25 29.166666666666668 0 29.166666666666668 0 12.5Z" stroke="rgba(33,41,48,1)" stroke-width="2" fill-opacity="1" fill="#4ccbcd"></path><g id="SvgjsG1074"><text id="SvgjsText1075" font-family="微软雅黑" text-anchor="middle" font-size="13px" width="5px" fill="#323232" font-weight="400" align="middle" lineHeight="125%" anchor="middle" family="微软雅黑" size="13px" weight="400" font-style="" opacity="1" y="1.875" transform="rotate(0)"></text></g></g><g id="SvgjsG1076" transform="translate(206,156.5)"><path id="SvgjsPath1077" d="M 0 12.5C 0 -4.166666666666667 25 -4.166666666666667 25 12.5C 25 29.166666666666668 0 29.166666666666668 0 12.5Z" stroke="rgba(33,41,48,1)" stroke-width="2" fill-opacity="1" fill="#e74f4c"></path><g id="SvgjsG1078"><text id="SvgjsText1079" font-family="微软雅黑" text-anchor="middle" font-size="13px" width="5px" fill="#323232" font-weight="400" align="middle" lineHeight="125%" anchor="middle" family="微软雅黑" size="13px" weight="400" font-style="" opacity="1" y="1.875" transform="rotate(0)"></text></g></g><g id="SvgjsG1080"><path id="SvgjsPath1081" d="M235.7810831833982 258.52425647457494L219.2881005397664 185.01267669153026" stroke="#323232" stroke-width="2" fill="none" marker-end="url(#SvgjsMarker1082)"></path></g><g id="SvgjsG1084"><path id="SvgjsPath1085" d="M152.29282578030183 116.45616581323043L175.44582719091346 192.0578030723704" stroke="#323232" stroke-width="2" fill="none" marker-end="url(#SvgjsMarker1086)"></path></g><g id="SvgjsG1088"><path id="SvgjsPath1089" d="M92.67503333471751 164.51543749221412L107.86987999501702 79.04442502802925" stroke="#323232" stroke-width="2" fill="none" marker-end="url(#SvgjsMarker1090)"></path></g><g id="SvgjsG1092" transform="translate(379.25,147)"><path id="SvgjsPath1093" d="M 0 12.5C 0 -4.166666666666667 25 -4.166666666666667 25 12.5C 25 29.166666666666668 0 29.166666666666668 0 12.5Z" stroke="rgba(33,41,48,1)" stroke-width="2" fill-opacity="1" fill="#4ccbcd"></path><g id="SvgjsG1094"><text id="SvgjsText1095" font-family="微软雅黑" text-anchor="middle" font-size="13px" width="5px" fill="#323232" font-weight="400" align="middle" lineHeight="125%" anchor="middle" family="微软雅黑" size="13px" weight="400" font-style="" opacity="1" y="1.875" transform="rotate(0)"></text></g></g><g id="SvgjsG1096" transform="translate(307,147)"><path id="SvgjsPath1097" d="M 0 12.5C 0 -4.166666666666667 25 -4.166666666666667 25 12.5C 25 29.166666666666668 0 29.166666666666668 0 12.5Z" stroke="rgba(33,41,48,1)" stroke-width="2" fill-opacity="1" fill="#e74f4c"></path><g id="SvgjsG1098"><text id="SvgjsText1099" font-family="微软雅黑" text-anchor="middle" font-size="13px" width="5px" fill="#323232" font-weight="400" align="middle" lineHeight="125%" anchor="middle" family="微软雅黑" size="13px" weight="400" font-style="" opacity="1" y="1.875" transform="rotate(0)"></text></g></g><g id="SvgjsG1100" transform="translate(253.5,105)"><path id="SvgjsPath1101" d="M 0 12.5C 0 -4.166666666666667 25 -4.166666666666667 25 12.5C 25 29.166666666666668 0 29.166666666666668 0 12.5Z" stroke="rgba(33,41,48,1)" stroke-width="2" fill-opacity="1" fill="#4ccbcd"></path><g id="SvgjsG1102"><text id="SvgjsText1103" font-family="微软雅黑" text-anchor="middle" font-size="13px" width="5px" fill="#323232" font-weight="400" align="middle" lineHeight="125%" anchor="middle" family="微软雅黑" size="13px" weight="400" font-style="" opacity="1" y="1.875" transform="rotate(0)"></text></g></g><g id="SvgjsG1104"><path id="SvgjsPath1105" d="M306.1882779418686 158.915956080125L268.92219940927293 132.10255811155002" stroke="#e74f4c" stroke-width="2" fill="none" marker-end="url(#SvgjsMarker1106)"></path></g><g id="SvgjsG1108"><path id="SvgjsPath1109" d="M333 159.5L375.65 159.5" stroke="#e74f4c" stroke-width="2" fill="none" marker-end="url(#SvgjsMarker1110)"></path></g><g id="SvgjsG1112" transform="translate(523,90.5)"><path id="SvgjsPath1113" d="M 0 12.5C 0 -4.166666666666667 25 -4.166666666666667 25 12.5C 25 29.166666666666668 0 29.166666666666668 0 12.5Z" stroke="rgba(33,41,48,1)" stroke-width="2" fill-opacity="1" fill="#4ccbcd"></path><g id="SvgjsG1114"><text id="SvgjsText1115" font-family="微软雅黑" text-anchor="middle" font-size="13px" width="5px" fill="#323232" font-weight="400" align="middle" lineHeight="125%" anchor="middle" family="微软雅黑" size="13px" weight="400" font-style="" opacity="1" y="1.875" transform="rotate(0)"></text></g></g><g id="SvgjsG1116" transform="translate(409,77.5)"><path id="SvgjsPath1117" d="M 0 12.5C 0 -4.166666666666667 25 -4.166666666666667 25 12.5C 25 29.166666666666668 0 29.166666666666668 0 12.5Z" stroke="rgba(33,41,48,1)" stroke-width="2" fill-opacity="1" fill="#4ccbcd"></path><g id="SvgjsG1118"><text id="SvgjsText1119" font-family="微软雅黑" text-anchor="middle" font-size="13px" width="5px" fill="#323232" font-weight="400" align="middle" lineHeight="125%" anchor="middle" family="微软雅黑" size="13px" weight="400" font-style="" opacity="1" y="1.875" transform="rotate(0)"></text></g></g><g id="SvgjsG1120"><path id="SvgjsPath1121" d="M486.5079572248559 75.62590127991513L434.0538130242318 82.28291653891091" stroke="#323232" stroke-width="2" fill="none" marker-end="url(#SvgjsMarker1122)"></path></g><g id="SvgjsG1124"><path id="SvgjsPath1125" d="M500.79054981228444 63.612397741910485L532.654020675776 88.2953681291223" stroke="#323232" stroke-width="2" fill="none" marker-end="url(#SvgjsMarker1126)"></path></g><g id="SvgjsG1128" transform="translate(392,222)"><path id="SvgjsPath1129" d="M 0 12.5C 0 -4.166666666666667 25 -4.166666666666667 25 12.5C 25 29.166666666666668 0 29.166666666666668 0 12.5Z" stroke="rgba(33,41,48,1)" stroke-width="2" fill-opacity="1" fill="#4ccbcd"></path><g id="SvgjsG1130"><text id="SvgjsText1131" font-family="微软雅黑" text-anchor="middle" font-size="13px" width="5px" fill="#323232" font-weight="400" align="middle" lineHeight="125%" anchor="middle" family="微软雅黑" size="13px" weight="400" font-style="" opacity="1" y="1.875" transform="rotate(0)"></text></g></g><g id="SvgjsG1132" transform="translate(307,290.5)"><path id="SvgjsPath1133" d="M 0 12.5C 0 -4.166666666666667 25 -4.166666666666667 25 12.5C 25 29.166666666666668 0 29.166666666666668 0 12.5Z" stroke="rgba(33,41,48,1)" stroke-width="2" fill-opacity="1" fill="#4ccbcd"></path><g id="SvgjsG1134"><text id="SvgjsText1135" font-family="微软雅黑" text-anchor="middle" font-size="13px" width="5px" fill="#323232" font-weight="400" align="middle" lineHeight="125%" anchor="middle" family="微软雅黑" size="13px" weight="400" font-style="" opacity="1" y="1.875" transform="rotate(0)"></text></g></g><g id="SvgjsG1136" transform="translate(189,310)"><path id="SvgjsPath1137" d="M 0 12.5C 0 -4.166666666666667 25 -4.166666666666667 25 12.5C 25 29.166666666666668 0 29.166666666666668 0 12.5Z" stroke="rgba(33,41,48,1)" stroke-width="2" fill-opacity="1" fill="#4ccbcd"></path><g id="SvgjsG1138"><text id="SvgjsText1139" font-family="微软雅黑" text-anchor="middle" font-size="13px" width="5px" fill="#323232" font-weight="400" align="middle" lineHeight="125%" anchor="middle" family="微软雅黑" size="13px" weight="400" font-style="" opacity="1" y="1.875" transform="rotate(0)"></text></g></g><g id="SvgjsG1140"><path id="SvgjsPath1141" d="M306.0212830502745 303.2052148442973L217.52338101901188 321.76122656052974" stroke="#323232" stroke-width="2" fill="none" marker-end="url(#SvgjsMarker1142)"></path></g><g id="SvgjsG1144"><path id="SvgjsPath1145" d="M446.20508531237795 182.54447641210447L422.56169287543946 105.93988491642395" stroke="#323232" stroke-width="2" fill="none" marker-end="url(#SvgjsMarker1146)"></path></g><g id="SvgjsG1148" transform="translate(548,195.5)"><path id="SvgjsPath1149" d="M 0 12.5C 0 -4.166666666666667 25 -4.166666666666667 25 12.5C 25 29.166666666666668 0 29.166666666666668 0 12.5Z" stroke="rgba(33,41,48,1)" stroke-width="2" fill-opacity="1" fill="#4ccbcd"></path><g id="SvgjsG1150"><text id="SvgjsText1151" font-family="微软雅黑" text-anchor="middle" font-size="13px" width="5px" fill="#323232" font-weight="400" align="middle" lineHeight="125%" anchor="middle" family="微软雅黑" size="13px" weight="400" font-style="" opacity="1" y="1.875" transform="rotate(0)"></text></g></g><g id="SvgjsG1152" transform="translate(505,156.5)"><path id="SvgjsPath1153" d="M 0 12.5C 0 -4.166666666666667 25 -4.166666666666667 25 12.5C 25 29.166666666666668 0 29.166666666666668 0 12.5Z" stroke="rgba(33,41,48,1)" stroke-width="2" fill-opacity="1" fill="#4ccbcd"></path><g id="SvgjsG1154"><text id="SvgjsText1155" font-family="微软雅黑" text-anchor="middle" font-size="13px" width="5px" fill="#323232" font-weight="400" align="middle" lineHeight="125%" anchor="middle" family="微软雅黑" size="13px" weight="400" font-style="" opacity="1" y="1.875" transform="rotate(0)"></text></g></g><g id="SvgjsG1156" transform="translate(434,183.5)"><path id="SvgjsPath1157" d="M 0 12.5C 0 -4.166666666666667 25 -4.166666666666667 25 12.5C 25 29.166666666666668 0 29.166666666666668 0 12.5Z" stroke="rgba(33,41,48,1)" stroke-width="2" fill-opacity="1" fill="#4ccbcd"></path><g id="SvgjsG1158"><text id="SvgjsText1159" font-family="微软雅黑" text-anchor="middle" font-size="13px" width="5px" fill="#323232" font-weight="400" align="middle" lineHeight="125%" anchor="middle" family="微软雅黑" size="13px" weight="400" font-style="" opacity="1" y="1.875" transform="rotate(0)"></text></g></g><g id="SvgjsG1160"><path id="SvgjsPath1161" d="M504.06471245653086 169.35388869864886L458.84949419020177 186.46216183146942" stroke="#323232" stroke-width="2" fill="none" marker-end="url(#SvgjsMarker1162)"></path></g><g id="SvgjsG1164"><path id="SvgjsPath1165" d="M530.7407190347408 169.6718149384858L570.3334114749332 205.58146622145108" stroke="#323232" stroke-width="2" fill="none" marker-end="url(#SvgjsMarker1166)"></path></g><g id="SvgjsG1168"><path id="SvgjsPath1169" d="M391.9970929072524 172.96899179314664L403.61046553389133 218.51162954467208" stroke="#323232" stroke-width="2" fill="none" marker-end="url(#SvgjsMarker1170)"></path></g><g id="SvgjsG1172"><path id="SvgjsPath1173" d="M319.5 289.5L319.5 175.60000000000002" stroke="#323232" stroke-width="2" fill="none" marker-end="url(#SvgjsMarker1174)"></path></g><g id="SvgjsG1176"><path id="SvgjsPath1177" d="M248.83035042472807 246.05614164363396L264.8107384709788 200.39789008291768" stroke="#323232" stroke-width="2" fill="none" marker-end="url(#SvgjsMarker1178)"></path></g><g id="SvgjsG1180"><path id="SvgjsPath1181" d="M189 209L189 318.9" stroke="#e74f4c" stroke-width="2" fill="none" marker-end="url(#SvgjsMarker1182)"></path></g><g id="SvgjsG1184"><path id="SvgjsPath1185" d="M391.33307070409614 235.24512100645813L321.9009454652539 312.81756437675074" stroke="#323232" stroke-width="2" fill="none" marker-end="url(#SvgjsMarker1186)"></path></g><g id="SvgjsG1188" transform="translate(475,50.5)"><path id="SvgjsPath1189" d="M 0 12.5C 0 -4.166666666666667 25 -4.166666666666667 25 12.5C 25 29.166666666666668 0 29.166666666666668 0 12.5Z" stroke="rgba(33,41,48,1)" stroke-width="2" fill-opacity="1" fill="#4ccbcd"></path><g id="SvgjsG1190"><text id="SvgjsText1191" font-family="微软雅黑" text-anchor="middle" font-size="13px" width="5px" fill="#323232" font-weight="400" align="middle" lineHeight="125%" anchor="middle" family="微软雅黑" size="13px" weight="400" font-style="" opacity="1" y="1.875" transform="rotate(0)"></text></g></g></svg>